HIERARCHY
ROOT joint_Root
{
	OFFSET 0.0 0.0 0.0
	CHANNELS 6 Xposition Yposition Zposition Zrotation Xrotation Yrotation 
	JOINT Hips
	{
		OFFSET 4.5925 91.4895 -427.239
		CHANNELS 6 Xposition Yposition Zposition Zrotation Xrotation Yrotation 
		JOINT Spine
		{
			OFFSET 15.7357 0.0 0.0
			CHANNELS 6 Xposition Yposition Zposition Zrotation Xrotation Yrotation 
			JOINT Chest
			{
				OFFSET 8.98455 -0.406207 0.0
				CHANNELS 6 Xposition Yposition Zposition Zrotation Xrotation Yrotation 
				JOINT Neck
				{
					OFFSET 16.3773 0.0 0.0
					CHANNELS 6 Xposition Yposition Zposition Zrotation Xrotation Yrotation 
					JOINT Head
					{
						OFFSET 6.45672 0.0 0.0
						CHANNELS 6 Xposition Yposition Zposition Zrotation Xrotation Yrotation 
						End Site
						{
							OFFSET 0.0 0.0 0.0
						}
					}
				}
				JOINT Shoulder_L
				{
					OFFSET 12.9942 -0.242716 4.98039
					CHANNELS 6 Xposition Yposition Zposition Zrotation Xrotation Yrotation 
					JOINT UpperArm_L
					{
						OFFSET 5.34809 0.0 0.0
						CHANNELS 6 Xposition Yposition Zposition Zrotation Xrotation Yrotation 
						JOINT LowerArm_L
						{
							OFFSET 24.3286 1.87007e-05 0.0
							CHANNELS 6 Xposition Yposition Zposition Zrotation Xrotation Yrotation 
							JOINT Hand_L
							{
								OFFSET 22.2916 0.0 0.0
								CHANNELS 6 Xposition Yposition Zposition Zrotation Xrotation Yrotation 
								End Site
								{
									OFFSET 0.0 0.0 0.0
								}
							}
						}
					}
				}
				JOINT Shoulder_R
				{
					OFFSET 12.9945 -0.242716 -4.98039
					CHANNELS 6 Xposition Yposition Zposition Zrotation Xrotation Yrotation 
					JOINT UpperArm_R
					{
						OFFSET -5.34813 0.0 0.0
						CHANNELS 6 Xposition Yposition Zposition Zrotation Xrotation Yrotation 
						JOINT LowerArm_R
						{
							OFFSET -24.3289 0.000322201 0.0
							CHANNELS 6 Xposition Yposition Zposition Zrotation Xrotation Yrotation 
							JOINT Hand_R
							{
								OFFSET -22.2915 -0.000108084 0.0
								CHANNELS 6 Xposition Yposition Zposition Zrotation Xrotation Yrotation 
								End Site
								{
									OFFSET 0.0 0.0 0.0
								}
							}
						}
					}
				}
			}
		}
		JOINT UpperLeg_L
		{
			OFFSET -2.19248 -6.46944 0.0
			CHANNELS 6 Xposition Yposition Zposition Zrotation Xrotation Yrotation 
			JOINT LowerLeg_L
			{
				OFFSET 39.0811 0.0 -1.23785e-05
				CHANNELS 6 Xposition Yposition Zposition Zrotation Xrotation Yrotation 
				JOINT Foot_L
				{
					OFFSET 40.9854 0.0 -1.26872e-05
					CHANNELS 6 Xposition Yposition Zposition Zrotation Xrotation Yrotation 
					JOINT Toes_L
					{
						OFFSET 11.7543 0.0 0.0
						CHANNELS 6 Xposition Yposition Zposition Zrotation Xrotation Yrotation 
						End Site
						{
							OFFSET 0.0 0.0 0.0
						}
					}
				}
			}
		}
		JOINT UpperLeg_R
		{
			OFFSET -2.19251 6.46944 0.0
			CHANNELS 6 Xposition Yposition Zposition Zrotation Xrotation Yrotation 
			JOINT LowerLeg_R
			{
				OFFSET -39.0811 -0.00228153 -0.0401928
				CHANNELS 6 Xposition Yposition Zposition Zrotation Xrotation Yrotation 
				JOINT Foot_R
				{
					OFFSET -40.9854 0.0 0.0
					CHANNELS 6 Xposition Yposition Zposition Zrotation Xrotation Yrotation 
					JOINT Toes_R
					{
						OFFSET -11.7543 0.0 0.0
						CHANNELS 6 Xposition Yposition Zposition Zrotation Xrotation Yrotation 
						End Site
						{
							OFFSET 0.0 0.0 0.0
						}
					}
				}
			}
		}
	}
}
MOTION
Frames:	4
Frame Time:	0.0333333
0.000000 0.000000 0.000000 0.000000 0.000000 -0.000000 -0.439227 91.747500 2.515870 89.377400 -0.137507 1.363330 15.735700 0.000005 -0.000001 82.750800 87.279900 -83.001500 8.984550 -0.406207 -0.000000 -2.370750 -0.664092 -0.515232 16.377300 -0.000001 -0.000001 6.411390 -3.835800 2.259120 6.456720 -0.000001 -0.000000 -1.029900 -3.832070 -0.388847 12.994200 -0.242716 4.980390 -83.495800 -11.126000 -59.424300 5.348090 -0.000007 -0.000001 -44.772300 -65.152400 -89.925700 24.328600 0.000019 0.000005 12.744700 11.258200 -49.200600 22.291600 -0.000001 0.000005 27.521200 5.353790 -1.491090 12.994500 -0.242716 -4.980390 95.225700 -11.364900 -65.102800 -5.348130 -0.000001 -0.000004 -56.677800 -62.884700 -101.672000 -24.328900 0.000322 -0.000009 -0.873358 -0.823683 -46.641300 -22.291500 -0.000108 -0.000004 24.025400 5.597340 -11.184400 -2.192480 -6.469440 -0.000000 -175.970000 -12.417700 -3.965050 39.081100 -0.000007 -0.000012 -0.141432 0.317918 23.983000 40.985400 -0.000006 -0.000013 0.307465 7.660930 -68.634900 11.754300 -0.000000 0.000003 -0.000226 -0.002049 -16.654600 -2.192510 6.469440 -0.000001 176.774000 25.288900 176.849000 -39.081100 -0.002282 -0.040193 0.006451 -0.007001 24.138700 -40.985400 0.000008 0.000006 5.275110 12.162500 -69.474900 -11.754300 -0.000006 -0.000006 -0.001643 -0.024156 -17.555400
0.000000 0.000000 0.000000 0.000000 0.000000 -0.000000 -0.400954 91.750400 2.497880 89.365800 -0.254498 1.374910 15.735700 0.000005 -0.000001 82.696300 87.244000 -82.942800 8.984550 -0.406207 -0.000000 -2.300240 -0.678879 -0.506536 16.377300 -0.000001 -0.000001 6.396660 -3.835820 2.197030 6.456720 -0.000001 -0.000000 -0.999897 -3.816760 -0.349966 12.994200 -0.242716 4.980390 -83.562600 -10.985700 -59.371100 5.348090 -0.000007 -0.000001 -45.171900 -64.944800 -89.319300 24.328600 0.000019 0.000005 12.381200 10.594500 -50.053000 22.291600 -0.000001 0.000005 27.027500 5.346890 -1.283830 12.994500 -0.242716 -4.980390 95.141800 -11.196400 -65.136200 -5.348130 -0.000001 -0.000004 -54.604000 -62.835900 -99.174200 -24.328900 0.000322 -0.000009 -1.333160 -1.245020 -46.938000 -22.291500 -0.000108 -0.000004 23.803200 5.591580 -10.851400 -2.192480 -6.469440 -0.000000 -175.982000 -12.494700 -3.943690 39.081100 -0.000007 -0.000012 -0.140606 0.316131 23.978300 40.985400 -0.000006 -0.000013 0.327517 7.630420 -68.638500 11.754300 -0.000000 0.000003 -0.000243 -0.002183 -16.659400 -2.192510 6.469440 -0.000001 176.767000 25.227500 176.820000 -39.081100 -0.002282 -0.040193 0.006495 -0.007094 24.154800 -40.985400 0.000008 0.000006 5.275420 12.195100 -69.440800 -11.754300 -0.000006 -0.000006 -0.001560 -0.023067 -17.511100
0.000000 0.000000 0.000000 0.000000 0.000000 -0.000000 -0.363732 91.738700 2.485400 89.365600 -0.338621 1.453250 15.735700 0.000005 -0.000001 82.513700 87.182500 -82.756500 8.984550 -0.406207 -0.000000 -2.180650 -0.712904 -0.499108 16.377300 -0.000001 -0.000001 6.273330 -3.875190 2.158490 6.456720 -0.000001 -0.000000 -0.898641 -3.823610 -0.383224 12.994200 -0.242716 4.980390 -83.700500 -10.789500 -59.472100 5.348090 -0.000007 -0.000001 -44.029600 -64.413800 -86.473300 24.328600 0.000019 0.000005 11.862500 9.585710 -51.594600 22.291600 -0.000001 0.000005 26.377500 5.340040 -1.079370 12.994500 -0.242716 -4.980390 94.994000 -10.890100 -65.178200 -5.348130 -0.000001 -0.000004 -51.549000 -62.295300 -95.117500 -24.328900 0.000322 -0.000009 -2.594220 -2.359120 -47.726900 -22.291500 -0.000108 -0.000004 23.852200 5.581390 -10.287200 -2.192480 -6.469440 -0.000000 -175.979000 -12.663800 -3.892240 39.081100 -0.000007 -0.000012 -0.140366 0.314355 24.061800 40.985400 -0.000006 -0.000013 0.372869 7.681920 -68.690200 11.754300 -0.000000 0.000003 -0.000241 -0.002165 -16.658800 -2.192510 6.469440 -0.000001 176.699000 25.205200 176.882000 -39.081100 -0.002282 -0.040193 0.005955 -0.005882 24.185700 -40.985400 0.000008 0.000006 5.231110 12.275300 -69.482400 -11.754300 -0.000006 -0.000006 -0.001423 -0.021248 -17.437100
0.000000 0.000000 0.000000 0.000000 0.000000 -0.000000 -0.318946 91.724600 2.483390 89.352600 -0.432688 1.609000 15.735700 0.000005 -0.000001 82.511400 87.113100 -82.738900 8.984550 -0.406207 -0.000000 -2.043000 -0.732821 -0.467914 16.377300 -0.000001 -0.000001 6.118770 -3.958770 2.168960 6.456720 -0.000001 -0.000000 -0.708932 -3.844200 -0.588935 12.994200 -0.242716 4.980390 -83.976900 -10.467800 -59.854500 5.348090 -0.000007 -0.000001 -40.907800 -63.259300 -80.839300 24.328600 0.000019 0.000005 11.471200 8.448800 -54.096200 22.291600 -0.000001 0.000005 25.356600 5.330890 -0.811319 12.994500 -0.242716 -4.980390 94.708700 -10.358400 -65.387900 -5.348130 -0.000001 -0.000004 -47.606500 -61.012100 -89.569100 -24.328900 0.000322 -0.000009 -5.435910 -4.753410 -48.938500 -22.291500 -0.000108 -0.000004 23.902500 5.574220 -9.906720 -2.192480 -6.469440 -0.000000 -175.957000 -12.713700 -3.773640 39.081100 -0.000007 -0.000012 -0.140820 0.313822 24.167100 40.985400 -0.000006 -0.000013 0.405682 7.662980 -68.756100 11.754300 -0.000000 0.000003 -0.000247 -0.002212 -16.660500 -2.192510 6.469440 -0.000001 176.625000 25.090100 176.987000 -39.081100 -0.002282 -0.040193 0.006459 -0.006970 24.286500 -40.985400 0.000008 0.000006 5.272820 12.247500 -69.530700 -11.754300 -0.000006 -0.000006 -0.001474 -0.021925 -17.464700
